<svg width="82" height="93" viewBox="0 0 82 93" fill="none" xmlns="http://www.w3.org/2000/svg">
<rect width="82" height="93" rx="8" fill="#F0C53E"/>
<path fill-rule="evenodd" clip-rule="evenodd" d="M19.5 67.1281C18.149 67.1281 17.05 66.292 17.05 65.2642V42.3658C17.05 41.338 18.149 40.502 19.5 40.502H61.5C62.851 40.502 63.95 41.338 63.95 42.3658V65.2642C63.95 66.292 62.851 67.1281 61.5 67.1281H19.5Z" fill="#EE5060"/>
<path fill-rule="evenodd" clip-rule="evenodd" d="M21.6 67.9263C20.9077 67.9263 20.2311 68.0824 19.6555 68.375C19.0799 68.6676 18.6313 69.0834 18.3664 69.57C18.1015 70.0565 18.0322 70.5918 18.1672 71.1083C18.3023 71.6248 18.6356 72.0993 19.1251 72.4717C19.6146 72.844 20.2382 73.0976 20.9172 73.2004C21.5961 73.3031 22.2998 73.2504 22.9394 73.0488C23.5789 72.8473 24.1255 72.506 24.5101 72.0682C24.8947 71.6303 25.1 71.1155 25.1 70.5889V67.9263H21.6Z" fill="#2C2D32"/>
<path d="M21.6 72.1877C22.7598 72.1877 23.7 71.4723 23.7 70.5899C23.7 69.7075 22.7598 68.9922 21.6 68.9922C20.4402 68.9922 19.5 69.7075 19.5 70.5899C19.5 71.4723 20.4402 72.1877 21.6 72.1877Z" fill="#495E74"/>
<path fill-rule="evenodd" clip-rule="evenodd" d="M59.4 67.9263C60.0923 67.9263 60.769 68.0824 61.3445 68.375C61.9201 68.6676 62.3687 69.0834 62.6336 69.57C62.8985 70.0565 62.9678 70.5918 62.8328 71.1083C62.6977 71.6248 62.3644 72.0993 61.8749 72.4717C61.3854 72.844 60.7618 73.0976 60.0828 73.2004C59.4039 73.3031 58.7002 73.2504 58.0606 73.0488C57.4211 72.8473 56.8745 72.506 56.4899 72.0682C56.1053 71.6303 55.9 71.1155 55.9 70.5889V67.9263H59.4Z" fill="#2C2D32"/>
<path d="M59.4 72.1877C60.5598 72.1877 61.5 71.4723 61.5 70.5899C61.5 69.7075 60.5598 68.9922 59.4 68.9922C58.2402 68.9922 57.3 69.7075 57.3 70.5899C57.3 71.4723 58.2402 72.1877 59.4 72.1877Z" fill="#495E74"/>
<path fill-rule="evenodd" clip-rule="evenodd" d="M49.6 39.7033V23.7277C49.6 23.304 49.3787 22.8976 48.9849 22.598C48.5911 22.2984 48.0569 22.1301 47.5 22.1301H33.5C32.943 22.1301 32.4089 22.2984 32.0151 22.598C31.6212 22.8976 31.4 23.304 31.4 23.7277V39.7033H28.6V22.6626C28.6 21.9564 28.9687 21.2792 29.6251 20.7799C30.2815 20.2805 31.1717 20 32.1 20H48.9C49.8282 20 50.7185 20.2805 51.3748 20.7799C52.0312 21.2792 52.4 21.9564 52.4 22.6626V39.7033H49.6Z" fill="#495E74"/>
<path fill-rule="evenodd" clip-rule="evenodd" d="M52.3706 23.1952V22.4422C52.2215 21.0768 50.734 20 48.9 20H32.1C31.1717 20 30.2815 20.2805 29.6251 20.7799C28.9687 21.2792 28.6 21.9565 28.6 22.6626V24.7927C28.6 25.0752 28.7475 25.3461 29.01 25.5458C29.2726 25.7456 29.6287 25.8578 30 25.8578C30.3713 25.8578 30.7274 25.7456 30.9899 25.5458C31.2525 25.3461 31.4 25.0752 31.4 24.7927V23.7277C31.4 23.304 31.6212 22.8976 32.0151 22.598C32.4089 22.2984 32.943 22.1301 33.5 22.1301H47.5C48.0569 22.1301 48.5911 22.2984 48.9849 22.598C49.3787 22.8976 49.6 23.304 49.6 23.7277V24.7927C49.6 25.0752 49.7475 25.3461 50.01 25.5458C50.2726 25.7456 50.6287 25.8578 51 25.8578C51.3713 25.8578 51.7274 25.7456 51.9899 25.5458C52.2525 25.3461 52.4 25.0752 52.4 24.7927V23.1952H52.3706Z" fill="#2C2D32"/>
<path fill-rule="evenodd" clip-rule="evenodd" d="M49.6294 39.7031H55.242L59.4 42.8663L46.7517 52.4884L39.7874 47.1904L49.6294 39.7031Z" fill="#EBECED"/>
<path fill-rule="evenodd" clip-rule="evenodd" d="M28.6 39.7031H31.4V64.7317H28.6V39.7031ZM49.6 39.7031H52.4V64.7317H49.6V39.7031Z" fill="#B25A59"/>
<path fill-rule="evenodd" clip-rule="evenodd" d="M31.4 52.4839H28.6C28.2287 52.4839 27.8726 52.5961 27.6101 52.7959C27.3475 52.9956 27.2 53.2666 27.2 53.5491V55.6794C27.2 55.9619 27.3475 56.2328 27.6101 56.4326C27.8726 56.6323 28.2287 56.7446 28.6 56.7446H31.4C31.7713 56.7446 32.1274 56.6323 32.3899 56.4326C32.6525 56.2328 32.8 55.9619 32.8 55.6794V53.5491C32.8 53.2666 32.6525 52.9956 32.3899 52.7959C32.1274 52.5961 31.7713 52.4839 31.4 52.4839ZM31.4 55.6794H28.6V53.5491H31.4V55.6794Z" fill="#F0C419"/>
<path fill-rule="evenodd" clip-rule="evenodd" d="M51 62.6019L49.6 61.5369V67.9271H52.4V61.5369L51 62.6019ZM28.6 61.5369V67.9271H31.4V61.5369L30 62.6019L28.6 61.5369ZM30 52.484C30.1856 52.484 30.3637 52.4279 30.4949 52.328C30.6262 52.2282 30.7 52.0927 30.7 51.9515C30.7 51.8103 30.6262 51.6748 30.4949 51.5749C30.3637 51.4751 30.1856 51.419 30 51.419C29.8143 51.419 29.6363 51.4751 29.505 51.5749C29.3737 51.6748 29.3 51.8103 29.3 51.9515C29.3 52.0927 29.3737 52.2282 29.505 52.328C29.6363 52.4279 29.8143 52.484 30 52.484ZM30 49.8214C30.1856 49.8214 30.3637 49.7653 30.4949 49.6654C30.6262 49.5656 30.7 49.4301 30.7 49.2889C30.7 49.1477 30.6262 49.0122 30.4949 48.9123C30.3637 48.8125 30.1856 48.7564 30 48.7564C29.8143 48.7564 29.6363 48.8125 29.505 48.9123C29.3737 49.0122 29.3 49.1477 29.3 49.2889C29.3 49.4301 29.3737 49.5656 29.505 49.6654C29.6363 49.7653 29.8143 49.8214 30 49.8214ZM30 47.1588C30.1856 47.1588 30.3637 47.1027 30.4949 47.0028C30.6262 46.903 30.7 46.7675 30.7 46.6263C30.7 46.485 30.6262 46.3496 30.4949 46.2497C30.3637 46.1499 30.1856 46.0938 30 46.0938C29.8143 46.0938 29.6363 46.1499 29.505 46.2497C29.3737 46.3496 29.3 46.485 29.3 46.6263C29.3 46.7675 29.3737 46.903 29.505 47.0028C29.6363 47.1027 29.8143 47.1588 30 47.1588ZM30 44.4962C30.1856 44.4962 30.3637 44.4401 30.4949 44.3402C30.6262 44.2404 30.7 44.1049 30.7 43.9637C30.7 43.8224 30.6262 43.687 30.4949 43.5871C30.3637 43.4873 30.1856 43.4312 30 43.4312C29.8143 43.4312 29.6363 43.4873 29.505 43.5871C29.3737 43.687 29.3 43.8224 29.3 43.9637C29.3 44.1049 29.3737 44.2404 29.505 44.3402C29.6363 44.4401 29.8143 44.4962 30 44.4962ZM51 52.484C51.1856 52.484 51.3637 52.4279 51.4949 52.328C51.6262 52.2282 51.7 52.0927 51.7 51.9515C51.7 51.8103 51.6262 51.6748 51.4949 51.5749C51.3637 51.4751 51.1856 51.419 51 51.419C50.8143 51.419 50.6363 51.4751 50.505 51.5749C50.3737 51.6748 50.3 51.8103 50.3 51.9515C50.3 52.0927 50.3737 52.2282 50.505 52.328C50.6363 52.4279 50.8143 52.484 51 52.484ZM51 49.8214C51.1856 49.8214 51.3637 49.7653 51.4949 49.6654C51.6262 49.5656 51.7 49.4301 51.7 49.2889C51.7 49.1477 51.6262 49.0122 51.4949 48.9123C51.3637 48.8125 51.1856 48.7564 51 48.7564C50.8143 48.7564 50.6363 48.8125 50.505 48.9123C50.3737 49.0122 50.3 49.1477 50.3 49.2889C50.3 49.4301 50.3737 49.5656 50.505 49.6654C50.6363 49.7653 50.8143 49.8214 51 49.8214ZM51 47.1588C51.1856 47.1588 51.3637 47.1027 51.4949 47.0028C51.6262 46.903 51.7 46.7675 51.7 46.6263C51.7 46.485 51.6262 46.3496 51.4949 46.2497C51.3637 46.1499 51.1856 46.0938 51 46.0938C50.8143 46.0938 50.6363 46.1499 50.505 46.2497C50.3737 46.3496 50.3 46.485 50.3 46.6263C50.3 46.7675 50.3737 46.903 50.505 47.0028C50.6363 47.1027 50.8143 47.1588 51 47.1588ZM51 44.4962C51.1856 44.4962 51.3637 44.4401 51.4949 44.3402C51.6262 44.2404 51.7 44.1049 51.7 43.9637C51.7 43.8224 51.6262 43.687 51.4949 43.5871C51.3637 43.4873 51.1856 43.4312 51 43.4312C50.8143 43.4312 50.6363 43.4873 50.505 43.5871C50.3737 43.687 50.3 43.8224 50.3 43.9637C50.3 44.1049 50.3737 44.2404 50.505 44.3402C50.6363 44.4401 50.8143 44.4962 51 44.4962ZM30 55.1466C30.1856 55.1466 30.3637 55.0905 30.4949 54.9906C30.6262 54.8908 30.7 54.7553 30.7 54.6141C30.7 54.4729 30.6262 54.3374 30.4949 54.2375C30.3637 54.1377 30.1856 54.0816 30 54.0816C29.8143 54.0816 29.6363 54.1377 29.505 54.2375C29.3737 54.3374 29.3 54.4729 29.3 54.6141C29.3 54.7553 29.3737 54.8908 29.505 54.9906C29.6363 55.0905 29.8143 55.1466 30 55.1466ZM51 55.1466C51.1856 55.1466 51.3637 55.0905 51.4949 54.9906C51.6262 54.8908 51.7 54.7553 51.7 54.6141C51.7 54.4729 51.6262 54.3374 51.4949 54.2375C51.3637 54.1377 51.1856 54.0816 51 54.0816C50.8143 54.0816 50.6363 54.1377 50.505 54.2375C50.3737 54.3374 50.3 54.4729 50.3 54.6141C50.3 54.7553 50.3737 54.8908 50.505 54.9906C50.6363 55.0905 50.8143 55.1466 51 55.1466Z" fill="#90241D"/>
<path fill-rule="evenodd" clip-rule="evenodd" d="M31.4 53.549V55.6793H28.6L27.6102 56.4324C27.8636 56.6252 28.2136 56.7445 28.6 56.7445H31.4C31.7713 56.7445 32.1274 56.6323 32.39 56.4325C32.6525 56.2328 32.8 55.9618 32.8 55.6793V53.549C32.8 53.255 32.6432 52.9887 32.3898 52.7959L31.4 53.549Z" fill="#FCF062"/>
<path fill-rule="evenodd" clip-rule="evenodd" d="M52.4 52.4839H49.6C49.2287 52.4839 48.8726 52.5961 48.6101 52.7959C48.3475 52.9956 48.2 53.2666 48.2 53.5491V55.6794C48.2 55.9619 48.3475 56.2328 48.6101 56.4326C48.8726 56.6323 49.2287 56.7446 49.6 56.7446H52.4C52.7713 56.7446 53.1274 56.6323 53.3899 56.4326C53.6525 56.2328 53.8 55.9619 53.8 55.6794V53.5491C53.8 53.2666 53.6525 52.9956 53.3899 52.7959C53.1274 52.5961 52.7713 52.4839 52.4 52.4839ZM52.4 55.6794H49.6V53.5491H52.4V55.6794Z" fill="#F0C419"/>
<path fill-rule="evenodd" clip-rule="evenodd" d="M52.4 53.549V55.6793H49.6L48.6102 56.4324C48.8636 56.6252 49.2136 56.7445 49.6 56.7445H52.4C52.7713 56.7445 53.1274 56.6323 53.39 56.4325C53.6525 56.2328 53.8 55.9618 53.8 55.6793V53.549C53.8 53.255 53.6432 52.9887 53.3898 52.7959L52.4 53.549Z" fill="#FCF062"/>
<path d="M61.5 41.3007C62.2721 41.3007 62.9 41.7784 62.9 42.3657V65.2642C62.9 65.8515 62.2721 66.3292 61.5 66.3292H19.5C18.7279 66.3292 18.1 65.8515 18.1 65.2642V42.3657C18.1 41.7784 18.7279 41.3007 19.5 41.3007H61.5ZM61.5 39.7031H19.5C18.5717 39.7031 17.6815 39.9836 17.0251 40.483C16.3687 40.9823 16 41.6596 16 42.3657V65.2642C16 65.9703 16.3687 66.6476 17.0251 67.1469C17.6815 67.6462 18.5717 67.9268 19.5 67.9268H61.5C62.4283 67.9268 63.3185 67.6462 63.9749 67.1469C64.6313 66.6476 65 65.9703 65 65.2642V42.3657C65 41.6596 64.6313 40.9823 63.9749 40.483C63.3185 39.9836 62.4283 39.7031 61.5 39.7031Z" fill="#B25A59"/>
</svg>
